<svg width="260" height="164" viewBox="0 0 260 164" fill="none" xmlns="http://www.w3.org/2000/svg">
<path d="M259.93 15.4829L260 148.385C260.008 156.93 253.041 163.868 244.454 163.876L15.6313 164C14.204 164 12.8154 163.807 11.5044 163.443C4.91825 161.651 0.0775815 155.656 0.069824 148.525L6.47989e-06 15.622C-0.00775101 7.07707 6.95071 0.131398 15.546 0.131398L244.376 0.00778198C247.441 0.00778198 250.319 0.89627 252.723 2.44147C257.06 5.17647 259.93 9.98977 259.93 15.4829Z" fill="url(#paint0_linear_1_10441)"/>
<path opacity="0.53" d="M180.225 163.914L15.6348 163.999C14.2074 163.999 12.8188 163.806 11.5078 163.443L84.5213 90.6485C86.7011 88.4698 89.362 87.0636 92.1624 86.4687C97.1738 85.3407 102.658 86.7314 106.568 90.6408L180.225 163.914Z" fill="url(#paint1_linear_1_10441)"/>
<path opacity="0.53" d="M71.3301 59.3293L0.0620648 130.385L6.47269e-06 15.6311C-0.00775101 7.07839 6.95847 0.140454 15.5383 0.132728L33.8847 0.125L71.3223 37.372C77.4197 43.4215 77.4275 53.2644 71.3301 59.3293Z" fill="url(#paint2_linear_1_10441)"/>
<path opacity="0.53" d="M134.745 0.0625L112.364 22.3829C106.283 28.4555 96.3995 28.4633 90.3176 22.3983L67.9062 0.101129L134.745 0.0625Z" fill="url(#paint3_linear_1_10441)"/>
<path opacity="0.53" d="M259.934 15.4829L259.996 134.177C255.815 134.34 251.571 132.841 248.375 129.65L153.695 35.4546C147.598 29.3974 147.59 19.5468 153.68 13.4819L167.162 0.0386294L244.372 0C247.437 0 250.315 0.888491 252.719 2.43369C257.064 5.17642 259.934 9.98971 259.934 15.4829Z" fill="url(#paint4_linear_1_10441)"/>
<path d="M27.3745 27.1089H22.2468V30.8483H27.1573V32.3008H22.2391V37.1991H20.7031L20.6953 25.6641H27.3668L27.3745 27.1089Z" fill="white"/>
<path d="M29.8212 27.455C29.5419 27.455 29.317 27.3623 29.123 27.1769C28.9368 26.9915 28.8438 26.7674 28.8438 26.5047C28.8438 26.2421 28.9368 26.0103 29.123 25.8171C29.3092 25.624 29.5419 25.5313 29.8212 25.5313C30.085 25.5313 30.3099 25.624 30.5039 25.8171C30.69 26.0103 30.7831 26.2343 30.7831 26.5047C30.7831 26.7674 30.69 26.9915 30.5039 27.1769C30.3099 27.3623 30.085 27.455 29.8212 27.455ZM29.0997 37.1975L29.092 28.9539H30.5349L30.5426 37.1975H29.0997Z" fill="white"/>
<path d="M36.8535 28.7364C37.8232 28.7364 38.5989 29.0377 39.1885 29.6481C39.7703 30.2584 40.0651 31.0851 40.0651 32.1281V37.1886H38.6222V32.2131C38.6222 31.5409 38.436 31.0233 38.0714 30.6525C37.7068 30.2816 37.2026 30.1039 36.5665 30.1039C35.8528 30.1039 35.271 30.328 34.8288 30.7761C34.3866 31.2242 34.1694 31.9041 34.1694 32.8312V37.1964H32.7265L32.7188 28.9527H34.1616V30.1425C34.759 29.2 35.6511 28.7364 36.8535 28.7364Z" fill="white"/>
<path d="M48.9169 28.9451H50.3598L50.3676 37.1887H48.9247V35.7749C48.211 36.8642 47.1637 37.4051 45.7984 37.4128C44.6426 37.4128 43.6496 36.9956 42.8351 36.1534C42.0205 35.3113 41.6094 34.2915 41.6094 33.0785C41.6094 31.8655 42.0128 30.8457 42.8351 30.0036C43.6496 29.1614 44.6348 28.7442 45.7984 28.7442C47.1637 28.7442 48.211 29.285 48.9247 30.3744L48.9169 28.9451ZM45.9768 36.0144C46.8146 36.0144 47.5128 35.7285 48.0791 35.1645C48.6377 34.6005 48.9247 33.8975 48.9247 33.063C48.9247 32.2286 48.6454 31.5256 48.0791 30.9616C47.5128 30.3976 46.8146 30.1117 45.9768 30.1117C45.1468 30.1117 44.4564 30.3976 43.8901 30.9616C43.3238 31.5256 43.0445 32.2286 43.0445 33.063C43.0445 33.8975 43.3238 34.6005 43.8901 35.1645C44.4564 35.7285 45.1468 36.0144 45.9768 36.0144Z" fill="white"/>
<path d="M56.4301 37.3893C55.1811 37.3893 54.1494 36.9721 53.3193 36.1455C52.4893 35.3188 52.0781 34.2835 52.0781 33.0551C52.0781 31.8266 52.4893 30.7913 53.3193 29.9647C54.1494 29.138 55.1811 28.7208 56.4301 28.7208C57.2446 28.7208 57.9816 28.9139 58.6332 29.308C59.2848 29.6943 59.7658 30.2196 60.0916 30.8841L58.8814 31.5794C58.672 31.139 58.3462 30.7913 57.9118 30.5287C57.4773 30.266 56.9809 30.1346 56.4301 30.1346C55.6 30.1346 54.9096 30.4128 54.3511 30.9768C53.7925 31.5408 53.5133 32.2361 53.5133 33.0705C53.5133 33.8972 53.7925 34.5848 54.3511 35.1488C54.9096 35.7128 55.6 35.9909 56.4301 35.9909C56.9809 35.9909 57.4773 35.8596 57.9195 35.6046C58.3617 35.3497 58.6953 34.9943 58.928 34.5539L60.1537 35.2647C59.8046 35.9137 59.2926 36.4313 58.6332 36.8253C57.9738 37.2194 57.2369 37.3893 56.4301 37.3893Z" fill="white"/>
<path d="M62.3056 27.4395C62.0263 27.4395 61.8013 27.3468 61.6074 27.1613C61.4212 26.9759 61.3281 26.7519 61.3281 26.4892C61.3281 26.2265 61.4212 25.9947 61.6074 25.8016C61.7936 25.6084 62.0263 25.5157 62.3056 25.5157C62.5693 25.5157 62.7943 25.6084 62.9882 25.8016C63.1822 25.9947 63.2675 26.2188 63.2675 26.4892C63.2675 26.7519 63.1744 26.9759 62.9882 27.1613C62.7943 27.3468 62.5693 27.4395 62.3056 27.4395ZM61.5764 37.1742L61.5686 28.9306H63.0115L63.0193 37.1742H61.5764Z" fill="white"/>
<path d="M26.3968 69.418V70.7237L24.5273 70.6464L25.6133 72.1375L24.442 72.8328L23.5188 71.1563L22.5957 72.8328L21.4476 72.1375L22.5103 70.6464L20.6641 70.7314V69.4257L22.5103 69.5261L21.4398 68.0118L22.5879 67.3165L23.5111 68.993L24.4342 67.3165L25.6056 68.0118L24.5195 69.5261L26.3968 69.418Z" fill="white"/>
<path d="M36.0062 69.4099V70.7156L34.1367 70.6383L35.2227 72.1295L34.0513 72.8248L33.1282 71.1483L32.2051 72.8248L31.0569 72.1295L32.1197 70.6383L30.2734 70.7233V69.4176L32.1197 69.5181L31.0492 68.0038L32.1973 67.3084L33.1204 68.985L34.0436 67.3084L35.215 68.0038L34.1289 69.5181L36.0062 69.4099Z" fill="white"/>
<path d="M45.6235 69.4099V70.7156L43.7617 70.6383L44.8477 72.1295L43.6763 72.8248L42.7532 71.1483L41.83 72.8248L40.6819 72.1295L41.7447 70.6383L39.8984 70.7233V69.4176L41.7447 69.5181L40.6742 68.0038L41.8223 67.3084L42.7454 68.985L43.6686 67.3084L44.84 68.0038L43.7539 69.5181L45.6235 69.4099Z" fill="white"/>
<path d="M55.2406 69.4021V70.7078L53.371 70.6306L54.4571 72.1217L53.2857 72.817L52.3626 71.1405L51.4394 72.817L50.2913 72.1217L51.3541 70.6306L49.5078 70.7156V69.4099L51.3541 69.5103L50.2836 67.996L51.4317 67.3007L52.3548 68.9772L53.278 67.3007L54.4493 67.996L53.3633 69.5103L55.2406 69.4021Z" fill="white"/>
<path d="M71.5218 69.3944V70.7001L69.6523 70.6228L70.7383 72.1139L69.567 72.8093L68.6438 71.1327L67.7207 72.8093L66.5726 72.1139L67.6353 70.6228L65.7891 70.7078V69.4021L67.6353 69.5025L66.5648 67.9882L67.7129 67.2929L68.6361 68.9694L69.5592 67.2929L70.7306 67.9882L69.6445 69.5025L71.5218 69.3944Z" fill="white"/>
<path d="M81.1469 69.3866V70.6923L79.2773 70.615L80.3633 72.1061L79.192 72.8015L78.2688 71.1249L77.3457 72.8015L76.1976 72.1061L77.2603 70.615L75.4141 70.7V69.3943L77.2603 69.4947L76.1898 67.9805L77.3379 67.2851L78.2611 68.9616L79.1842 67.2851L80.3556 67.9805L79.2695 69.4947L81.1469 69.3866Z" fill="white"/>
<path d="M90.7484 69.3866V70.6923L88.8789 70.615L89.9649 72.1061L88.7935 72.8015L87.8704 71.1249L86.9472 72.8015L85.7991 72.1061L86.8619 70.615L85.0156 70.7V69.3943L86.8619 69.4947L85.7914 67.9805L86.9395 67.2851L87.8626 68.9616L88.7858 67.2851L89.9571 67.9805L88.8711 69.4947L90.7484 69.3866Z" fill="white"/>
<path d="M100.373 69.3788V70.6845L98.5117 70.6072L99.5977 72.0984L98.4263 72.7937L97.5032 71.1172L96.5801 72.7937L95.432 72.0984L96.4947 70.6072L94.6484 70.6922V69.3865L96.4947 69.487L95.4242 67.9727L96.5723 67.2773L97.4954 68.9539L98.4186 67.2773L99.59 67.9727L98.5039 69.487L100.373 69.3788Z" fill="white"/>
<path d="M116.647 69.371V70.6767L114.777 70.5995L115.863 72.0906L114.692 72.7859L113.769 71.1094L112.846 72.7859L111.698 72.0906L112.76 70.5995L110.914 70.6844V69.3787L112.76 69.4792L111.69 67.9649L112.838 67.2695L113.761 68.9461L114.684 67.2695L115.856 67.9649L114.77 69.4792L116.647 69.371Z" fill="white"/>
<path d="M126.264 69.3632V70.6689L124.394 70.5917L125.481 72.0828L124.309 72.7781L123.386 71.1016L122.463 72.7781L121.315 72.0828L122.378 70.5917L120.531 70.6767V69.371L122.378 69.4714L121.307 67.9571L122.455 67.2618L123.378 68.9383L124.301 67.2618L125.473 67.9571L124.387 69.4714L126.264 69.3632Z" fill="white"/>
<path d="M135.881 69.3555V70.6612L134.012 70.5839L135.098 72.075L133.926 72.7703L133.003 71.0938L132.08 72.7703L130.932 72.075L131.995 70.5839L130.148 70.6689V69.3632L131.995 69.4636L130.924 67.9493L132.072 67.254L132.995 68.9305L133.919 67.254L135.09 67.9493L134.004 69.4636L135.881 69.3555Z" fill="white"/>
<path d="M145.498 69.3555V70.6612L143.637 70.5839L144.723 72.075L143.551 72.7703L142.628 71.0938L141.705 72.7703L140.557 72.075L141.62 70.5839L139.773 70.6689V69.3632L141.62 69.4636L140.549 67.9493L141.697 67.254L142.62 68.9305L143.544 67.254L144.715 67.9493L143.629 69.4636L145.498 69.3555Z" fill="white"/>
<path d="M155.617 81.802V80.2491L160.675 75.1036C162.025 73.7515 162.708 72.6004 162.708 71.6346C162.708 70.8311 162.459 70.2053 161.971 69.7572C161.482 69.3091 160.877 69.085 160.163 69.085C158.806 69.085 157.828 69.7263 157.215 71.0088L155.617 70.074C156.067 69.1469 156.695 68.4438 157.494 67.9725C158.294 67.4935 159.178 67.254 160.148 67.254C161.35 67.254 162.397 67.648 163.282 68.4361C164.174 69.2241 164.616 70.2903 164.616 71.6192C164.616 73.0639 163.763 74.64 162.056 76.3398L158.394 79.9787H164.88V81.8175L155.617 81.802Z" fill="white"/>
<path d="M173.489 73.3581C174.583 73.559 175.483 74.0303 176.181 74.7643C176.879 75.4983 177.229 76.4331 177.229 77.5611C177.229 78.9518 176.748 80.0489 175.793 80.8524C174.839 81.6559 173.676 82.0576 172.31 82.0576C171.216 82.0576 170.247 81.8104 169.401 81.3159C168.556 80.8215 167.951 80.1029 167.594 79.1604L169.192 78.2178C169.618 79.5389 170.658 80.1957 172.31 80.1957C173.195 80.1957 173.924 79.9639 174.482 79.5003C175.041 79.0368 175.32 78.3878 175.32 77.5611C175.32 76.7344 175.041 76.0777 174.482 75.6141C173.924 75.1429 173.195 74.9111 172.31 74.9111H171.822L171.061 73.7444L174.382 69.2711H168.005V67.4941L176.616 67.4864L176.608 69.1552L173.489 73.3581Z" fill="white"/>
<path d="M191.391 77.2907V79.0677H189.645V81.7872H187.737V79.0677H180.414V77.2907L185.557 67.4864H187.605L182.462 77.2907H187.729V73.25H189.638V77.2907H191.391Z" fill="white"/>
<path d="M198.88 73.0645C200.237 73.0645 201.378 73.4585 202.316 74.2543C203.255 75.0501 203.721 76.1472 203.721 77.5533C203.721 78.944 203.24 80.041 202.285 80.8446C201.331 81.6481 200.168 82.0498 198.802 82.0498C197.709 82.0498 196.731 81.7871 195.87 81.2618C195.009 80.7364 194.404 79.9792 194.062 78.9826L195.684 78.0632C195.878 78.7585 196.242 79.2839 196.793 79.647C197.344 80.0102 198.011 80.1878 198.802 80.1878C199.702 80.1878 200.439 79.9561 200.998 79.4925C201.556 79.0289 201.836 78.38 201.836 77.5533C201.836 76.7266 201.556 76.0699 200.99 75.6063C200.431 75.135 199.71 74.9033 198.833 74.9033H194.776L195.288 67.4863L203.162 67.4786V69.2556H197.034L196.785 73.0568L198.88 73.0645Z" fill="white"/>
<path d="M21.9091 120.928C21.0713 120.928 20.3809 120.65 19.8301 120.102C19.2793 119.553 19.0078 118.873 19.0078 118.07C19.0078 117.266 19.2793 116.586 19.8223 116.038C20.3654 115.489 21.0635 115.211 21.9014 115.211C22.4056 115.211 22.871 115.335 23.2977 115.574C23.7244 115.814 24.0502 116.138 24.2907 116.548L23.6468 116.918C23.4916 116.617 23.2512 116.37 22.9409 116.192C22.6306 116.014 22.2815 115.922 21.9014 115.922C21.2652 115.922 20.7455 116.13 20.3421 116.54C19.9387 116.949 19.737 117.459 19.737 118.077C19.737 118.688 19.9387 119.198 20.3421 119.607C20.7455 120.017 21.2652 120.225 21.9014 120.217C22.2815 120.217 22.6306 120.125 22.9409 119.947C23.2589 119.769 23.4916 119.53 23.6468 119.229L24.2907 119.592C24.0579 120.001 23.7321 120.333 23.3055 120.573C22.8788 120.805 22.4134 120.928 21.9091 120.928Z" fill="white"/>
<path d="M28.3111 116.88H29.0015V120.82H28.3111V120.14C27.9698 120.658 27.4733 120.92 26.8139 120.92C26.2632 120.92 25.7899 120.72 25.3943 120.318C25.0064 119.916 24.8125 119.429 24.8125 118.85C24.8125 118.27 25.0064 117.784 25.3943 117.382C25.7822 116.98 26.2554 116.779 26.8139 116.779C27.4656 116.779 27.962 117.034 28.3111 117.56V116.88ZM26.8993 120.256C27.3027 120.256 27.6362 120.125 27.9 119.847C28.1715 119.576 28.3034 119.244 28.3034 118.842C28.3034 118.44 28.1715 118.108 27.9 117.838C27.6285 117.567 27.2949 117.436 26.8915 117.436C26.4959 117.436 26.1623 117.575 25.8985 117.846C25.627 118.116 25.4952 118.448 25.4952 118.85C25.4952 119.252 25.627 119.584 25.8985 119.854C26.1778 120.125 26.5036 120.264 26.8993 120.256Z" fill="white"/>
<path d="M30.7373 117.537C30.9623 117.05 31.3734 116.803 31.9707 116.803V117.521C31.6372 117.506 31.3424 117.591 31.1019 117.792C30.8614 117.985 30.7373 118.302 30.7373 118.727V120.813H30.0469V116.872H30.7373V117.537Z" fill="white"/>
<path d="M35.7018 115.297H36.3922V120.813H35.7018V120.133C35.3604 120.651 34.8639 120.914 34.2046 120.914C33.6538 120.914 33.1806 120.713 32.7849 120.311C32.3971 119.909 32.2031 119.423 32.2031 118.843C32.2031 118.264 32.3971 117.777 32.7849 117.375C33.1728 116.973 33.646 116.773 34.2046 116.773C34.8562 116.773 35.3604 117.028 35.7018 117.553V115.297ZM34.2977 120.257C34.701 120.257 35.0346 120.126 35.2984 119.848C35.5699 119.577 35.7018 119.245 35.7018 118.843C35.7018 118.441 35.5699 118.109 35.2984 117.839C35.0269 117.568 34.6933 117.437 34.2977 117.437C33.902 117.437 33.5684 117.576 33.3047 117.847C33.0332 118.117 32.9013 118.449 32.9013 118.851C32.9013 119.253 33.0332 119.585 33.3047 119.855C33.5684 120.126 33.902 120.257 34.2977 120.257Z" fill="white"/>
<path d="M42.9054 115.297H43.6346V120.813H42.9054V118.333H40.2135V120.813H39.4766V115.297H40.2135V117.638H42.9054V115.297Z" fill="white"/>
<path d="M48.0919 120.31C47.6886 120.712 47.1921 120.913 46.6103 120.913C46.0284 120.913 45.5397 120.712 45.1363 120.318C44.7329 119.916 44.5312 119.429 44.5312 118.842C44.5312 118.263 44.7329 117.768 45.1363 117.366C45.5397 116.965 46.0284 116.771 46.6103 116.764C47.1921 116.764 47.6808 116.965 48.0919 117.359C48.5031 117.753 48.7048 118.247 48.7048 118.834C48.697 119.421 48.4953 119.908 48.0919 120.31ZM46.6103 120.24C47.0059 120.24 47.3395 120.109 47.6032 119.839C47.8747 119.568 48.0066 119.236 48.0066 118.842C48.0066 118.44 47.8747 118.108 47.6032 117.845C47.3317 117.575 46.9981 117.444 46.6025 117.444C46.2146 117.444 45.8811 117.575 45.6095 117.845C45.338 118.116 45.2062 118.448 45.2062 118.842C45.2062 119.244 45.338 119.576 45.6095 119.839C45.8966 120.109 46.2224 120.24 46.6103 120.24Z" fill="white"/>
<path d="M49.5234 120.805V115.057H50.2139V120.805H49.5234Z" fill="white"/>
<path d="M54.5298 115.289H55.2202V120.805H54.5298V120.126C54.1885 120.643 53.692 120.906 53.0326 120.906C52.4818 120.906 52.0086 120.705 51.613 120.303C51.2251 119.902 51.0312 119.415 51.0234 118.835C51.0234 118.256 51.2174 117.769 51.6052 117.367C51.9931 116.966 52.4663 116.765 53.0171 116.765C53.6687 116.765 54.173 117.027 54.5143 117.545L54.5298 115.289ZM53.1257 120.249C53.5291 120.249 53.8627 120.118 54.1264 119.84C54.3979 119.569 54.5298 119.237 54.5298 118.835C54.5298 118.434 54.3979 118.101 54.1264 117.831C53.8549 117.561 53.5213 117.429 53.1257 117.429C52.7301 117.429 52.3965 117.568 52.125 117.839C51.8535 118.109 51.7216 118.441 51.7216 118.843C51.7216 119.245 51.8535 119.577 52.125 119.847C52.3965 120.11 52.7301 120.249 53.1257 120.249Z" fill="white"/>
<path d="M56.7529 119.151C56.8227 119.506 56.9856 119.777 57.2416 119.97C57.4976 120.163 57.8156 120.264 58.188 120.264C58.7077 120.264 59.0879 120.07 59.3283 119.684L59.9102 120.016C59.5223 120.611 58.9482 120.905 58.1725 120.905C57.5441 120.905 57.0321 120.712 56.6443 120.318C56.2486 119.924 56.0547 119.429 56.0547 118.834C56.0547 118.239 56.2486 117.745 56.6287 117.351C57.0166 116.957 57.5131 116.756 58.1259 116.756C58.7077 116.756 59.181 116.957 59.5456 117.366C59.9102 117.776 60.0963 118.262 60.0963 118.834C60.0963 118.935 60.0886 119.035 60.0731 119.143L56.7529 119.151ZM58.1182 117.405C57.7458 117.405 57.4433 117.505 57.2028 117.714C56.9623 117.923 56.8072 118.201 56.7529 118.548H59.3982C59.3361 118.177 59.1887 117.892 58.956 117.698C58.7077 117.505 58.4285 117.405 58.1182 117.405Z" fill="white"/>
<path d="M61.5576 117.519C61.7826 117.032 62.1937 116.785 62.791 116.785V117.504C62.4497 117.488 62.1627 117.581 61.9222 117.774C61.6817 117.967 61.5576 118.284 61.5576 118.709V120.795H60.8672V116.855H61.5576V117.519Z" fill="white"/>
<path d="M67.4157 116.756C67.8811 116.756 68.2535 116.903 68.5327 117.189C68.812 117.482 68.9517 117.876 68.9517 118.378V120.797H68.2612V118.417C68.2612 118.093 68.1759 117.845 67.9975 117.675C67.8268 117.498 67.5786 117.413 67.276 117.413C66.9347 117.413 66.6554 117.521 66.446 117.729C66.2365 117.946 66.1279 118.27 66.1279 118.711V120.797H65.4375V116.856H66.1279V117.42C66.4149 116.98 66.8416 116.756 67.4157 116.756Z" fill="white"/>
<path d="M73.1783 116.856H73.8687V120.797H73.1783V120.117C72.8369 120.634 72.3405 120.897 71.6811 120.897C71.1303 120.897 70.6571 120.696 70.2614 120.294C69.8736 119.893 69.6796 119.406 69.6719 118.826C69.6719 118.247 69.8658 117.76 70.2537 117.359C70.6416 116.957 71.1148 116.756 71.6656 116.756C72.3172 116.756 72.8214 117.011 73.1627 117.536V116.856H73.1783ZM71.7742 120.233C72.1775 120.233 72.5111 120.094 72.7749 119.823C73.0464 119.553 73.1783 119.221 73.1783 118.819C73.1783 118.417 73.0464 118.085 72.7749 117.814C72.5034 117.544 72.1698 117.413 71.7742 117.413C71.3785 117.413 71.045 117.544 70.7734 117.822C70.5019 118.093 70.3701 118.425 70.3701 118.826C70.3701 119.228 70.5019 119.56 70.7734 119.831C71.045 120.101 71.3785 120.233 71.7742 120.233Z" fill="white"/>
<path d="M79.1806 116.75C79.6228 116.75 79.9797 116.889 80.2589 117.182C80.5304 117.468 80.6701 117.855 80.6701 118.341V120.791H79.9797V118.365C79.9797 118.063 79.9021 117.824 79.7392 117.654C79.584 117.484 79.3668 117.399 79.1031 117.399C78.8083 117.399 78.5755 117.499 78.3971 117.692C78.2187 117.886 78.1334 118.187 78.1334 118.596V120.783H77.443V118.357C77.443 118.055 77.3654 117.816 77.218 117.646C77.0706 117.476 76.8611 117.391 76.6051 117.391C76.3104 117.391 76.0699 117.491 75.8837 117.692C75.6898 117.893 75.5967 118.195 75.5967 118.589V120.775H74.9062V116.835H75.5967V117.36C75.8682 116.943 76.2561 116.727 76.7758 116.727C77.3111 116.727 77.6989 116.951 77.9394 117.399C78.2109 116.974 78.6299 116.75 79.1806 116.75Z" fill="white"/>
<path d="M82.1122 119.135C82.1821 119.491 82.345 119.761 82.601 119.954C82.857 120.147 83.175 120.248 83.5474 120.248C84.0671 120.248 84.4472 120.055 84.6877 119.668L85.2695 120.001C84.8817 120.596 84.3076 120.889 83.5319 120.889C82.9035 120.889 82.3915 120.696 82.0036 120.302C81.608 119.908 81.4141 119.413 81.4141 118.819C81.4141 118.224 81.608 117.729 81.9881 117.335C82.376 116.941 82.8725 116.748 83.4853 116.74C84.0671 116.74 84.5403 116.941 84.9049 117.351C85.2695 117.76 85.4557 118.247 85.4557 118.819C85.4557 118.919 85.448 119.019 85.4324 119.128L82.1122 119.135ZM83.4853 117.389C83.1129 117.389 82.8104 117.49 82.5699 117.698C82.3294 117.907 82.1743 118.185 82.12 118.533H84.7653C84.7032 118.162 84.5558 117.876 84.3231 117.683C84.0749 117.49 83.7956 117.389 83.4853 117.389Z" fill="white"/>
<path d="M24.4105 128.748H26.0784L26.0862 137.185H24.8139L21.1834 132.032V137.192H19.5156L19.5078 128.756H20.78L24.4105 133.893V128.748Z" fill="white"/>
<path d="M32.7347 136.42C32.1141 137.038 31.3539 137.339 30.4618 137.347C29.5697 137.355 28.8094 137.038 28.1966 136.428C27.576 135.809 27.2734 135.06 27.2734 134.172C27.2734 133.283 27.5837 132.526 28.1966 131.916C28.8094 131.305 29.5697 130.996 30.4618 130.996C31.3539 130.996 32.1141 131.305 32.7347 131.916C33.3553 132.534 33.6656 133.283 33.6656 134.172C33.6656 135.052 33.3553 135.809 32.7347 136.42ZM29.2981 135.354C29.6084 135.67 29.9963 135.825 30.4618 135.825C30.9272 135.825 31.3228 135.67 31.6331 135.354C31.9512 135.037 32.1064 134.643 32.1064 134.164C32.1064 133.685 31.9512 133.283 31.6331 132.974C31.3151 132.665 30.9272 132.503 30.4618 132.503C29.9963 132.503 29.6084 132.657 29.2981 132.974C28.9878 133.291 28.8327 133.685 28.8327 134.164C28.8327 134.643 28.9878 135.045 29.2981 135.354Z" fill="white"/>
<path d="M41.4603 130.973C42.1508 130.973 42.7093 131.197 43.1204 131.645C43.5393 132.093 43.741 132.696 43.741 133.453V137.161H42.1818V133.561C42.1818 133.198 42.0887 132.92 41.918 132.719C41.7396 132.518 41.4914 132.417 41.1656 132.417C40.8087 132.417 40.5372 132.533 40.3355 132.765C40.1338 132.997 40.0407 133.337 40.0407 133.777V137.161H38.4815V133.561C38.4815 133.198 38.3961 132.92 38.2177 132.719C38.0393 132.518 37.791 132.417 37.4652 132.417C37.1161 132.417 36.8446 132.533 36.6352 132.765C36.4335 132.997 36.3249 133.337 36.3249 133.777V137.161H34.7656V131.135H36.3249V131.776C36.6895 131.235 37.248 130.965 38.0083 130.965C38.753 130.965 39.296 131.251 39.6528 131.83C40.0562 131.266 40.6613 130.973 41.4603 130.973Z" fill="white"/>
<path d="M49.6761 131.143H51.2353V137.169H49.6761V136.458C49.2106 137.046 48.5512 137.339 47.7057 137.339C46.8989 137.339 46.2085 137.03 45.6267 136.42C45.0526 135.802 44.7578 135.052 44.7578 134.164C44.7578 133.275 45.0448 132.518 45.6189 131.908C46.1929 131.29 46.8834 130.988 47.6901 130.988C48.5357 130.988 49.1951 131.282 49.6605 131.869L49.6761 131.143ZM46.798 135.377C47.1161 135.693 47.5117 135.856 47.9927 135.856C48.4736 135.856 48.877 135.693 49.1951 135.377C49.5131 135.06 49.6761 134.65 49.6761 134.156C49.6761 133.662 49.5131 133.252 49.1951 132.935C48.877 132.619 48.4736 132.456 47.9927 132.456C47.504 132.456 47.1083 132.619 46.798 132.935C46.4877 133.252 46.3248 133.662 46.3248 134.156C46.3248 134.65 46.48 135.06 46.798 135.377Z" fill="white"/>
<path d="M56.0152 130.965C56.6746 130.965 57.2254 131.189 57.6521 131.629C58.0865 132.07 58.2959 132.68 58.3037 133.46V137.161H56.7444V133.654C56.7444 133.252 56.6358 132.943 56.4186 132.734C56.2014 132.518 55.9066 132.417 55.5498 132.417C55.1464 132.417 54.8206 132.541 54.5801 132.788C54.3396 133.035 54.2155 133.414 54.2155 133.909V137.161H52.6562V131.135H54.2155V131.807C54.5879 131.251 55.193 130.973 56.0152 130.965Z" fill="white"/>
<path d="M71.0193 128.717L71.0271 137.154H69.367V131.684L66.9777 135.601L66.7837 135.608L64.4022 131.707V137.154H62.7343L62.7266 128.717H64.441L66.8691 132.696L69.2816 128.709L71.0193 128.717Z" fill="white"/>
<path d="M77.1136 131.127H78.6729V137.153H77.1136V136.443C76.6482 137.03 75.9888 137.323 75.1432 137.323C74.3364 137.323 73.646 137.014 73.072 136.404C72.4979 135.786 72.2031 135.036 72.2031 134.148C72.2031 133.26 72.4902 132.502 73.0642 131.884C73.6383 131.274 74.3287 130.965 75.1355 130.965C75.981 130.965 76.6404 131.258 77.1059 131.846V131.127H77.1136ZM74.2356 135.361C74.5536 135.678 74.9493 135.84 75.4302 135.84C75.9112 135.84 76.3146 135.678 76.6327 135.361C76.9507 135.044 77.1136 134.635 77.1136 134.14C77.1136 133.646 76.9507 133.236 76.6327 132.92C76.3146 132.603 75.9112 132.441 75.4302 132.441C74.9493 132.441 74.5459 132.603 74.2356 132.92C73.9175 133.236 73.7624 133.646 73.7624 134.14C73.7624 134.635 73.9253 135.044 74.2356 135.361Z" fill="white"/>
<path d="M83.4527 130.949C84.1121 130.949 84.6629 131.173 85.0896 131.614C85.524 132.054 85.7334 132.664 85.7412 133.445V137.146H84.1819V133.638C84.1819 133.236 84.0733 132.927 83.8561 132.719C83.6389 132.502 83.3441 132.402 82.9873 132.402C82.5839 132.402 82.2581 132.525 82.0176 132.773C81.7771 133.02 81.653 133.398 81.653 133.893V137.146H80.0938V131.119H81.653V131.791C82.0331 131.235 82.6305 130.957 83.4527 130.949Z" fill="white"/>
<path d="M88.9071 135.685H91.5912V137.145H86.8203V136.11L89.3725 132.579H86.9444V131.119H91.4748V132.154L88.9071 135.685Z" fill="white"/>
<path d="M97.5315 136.388C96.9109 137.007 96.1507 137.308 95.2586 137.316C94.3665 137.316 93.6062 137.007 92.9856 136.396C92.3728 135.786 92.0625 135.029 92.0625 134.14C92.0625 133.252 92.3728 132.495 92.9856 131.876C93.5985 131.266 94.3587 130.957 95.2508 130.957C96.1429 130.957 96.9032 131.266 97.5238 131.876C98.1444 132.495 98.4547 133.244 98.4547 134.132C98.4624 135.021 98.1521 135.77 97.5315 136.388ZM94.0872 135.322C94.3975 135.639 94.7854 135.794 95.2508 135.794C95.7163 135.794 96.1119 135.639 96.4222 135.322C96.7325 135.006 96.8954 134.611 96.8954 134.132C96.8954 133.653 96.7403 133.252 96.4222 132.943C96.1042 132.626 95.7163 132.471 95.2508 132.471C94.7854 132.471 94.3897 132.626 94.0872 132.943C93.7769 133.259 93.6218 133.653 93.6218 134.132C93.6218 134.611 93.7769 135.006 94.0872 135.322Z" fill="white"/>
<path d="M104.719 136.381C104.098 136.991 103.338 137.3 102.446 137.308C101.554 137.308 100.794 136.999 100.181 136.388C99.5603 135.778 99.25 135.021 99.25 134.132C99.25 133.244 99.5603 132.487 100.173 131.869C100.786 131.258 101.546 130.949 102.438 130.949C103.33 130.949 104.091 131.258 104.711 131.869C105.332 132.487 105.642 133.236 105.642 134.125C105.642 135.013 105.34 135.77 104.719 136.381ZM101.275 135.314C101.585 135.631 101.973 135.786 102.446 135.786C102.912 135.786 103.307 135.631 103.617 135.314C103.936 134.998 104.091 134.604 104.091 134.125C104.091 133.646 103.936 133.244 103.617 132.935C103.299 132.618 102.912 132.464 102.446 132.464C101.981 132.464 101.593 132.618 101.282 132.935C100.972 133.252 100.817 133.646 100.817 134.125C100.817 134.604 100.964 135.005 101.275 135.314Z" fill="white"/>
<path d="M108.309 132.147C108.457 131.761 108.697 131.475 109.031 131.282C109.364 131.089 109.737 130.988 110.148 130.988V132.727C109.667 132.673 109.248 132.765 108.868 133.02C108.495 133.268 108.309 133.685 108.309 134.264V137.146H106.75V131.12H108.309V132.147Z" fill="white"/>
<path d="M189.995 120.038H192.562V120.733H189.258V115.217H192.524V115.912H189.995V117.604H192.33V118.292H189.995V120.038Z" fill="white"/>
<path d="M196.817 120.725H196.01L194.9 119.234L193.791 120.725H192.984L194.497 118.694L193.07 116.785H193.884L194.9 118.153L195.924 116.785H196.731L195.304 118.694L196.817 120.725Z" fill="white"/>
<path d="M199.633 116.684C200.184 116.684 200.657 116.885 201.053 117.286C201.441 117.688 201.642 118.175 201.642 118.754C201.642 119.334 201.448 119.82 201.06 120.222C200.673 120.624 200.199 120.825 199.649 120.825C198.997 120.825 198.493 120.562 198.151 120.044V122.3H197.461V116.784H198.151V117.464C198.477 116.939 198.981 116.684 199.633 116.684ZM199.548 120.16C199.943 120.16 200.277 120.029 200.548 119.751C200.82 119.48 200.952 119.148 200.952 118.746C200.952 118.345 200.82 118.013 200.548 117.742C200.277 117.472 199.943 117.34 199.548 117.34C199.144 117.34 198.811 117.479 198.547 117.75C198.275 118.02 198.144 118.352 198.144 118.754C198.144 119.156 198.275 119.488 198.547 119.759C198.811 120.029 199.144 120.16 199.548 120.16Z" fill="white"/>
<path d="M202.809 116.066C202.677 116.066 202.569 116.02 202.476 115.935C202.383 115.842 202.344 115.741 202.344 115.61C202.344 115.479 202.39 115.378 202.476 115.286C202.569 115.193 202.677 115.147 202.809 115.147C202.933 115.147 203.042 115.193 203.135 115.286C203.228 115.378 203.267 115.486 203.267 115.61C203.267 115.734 203.22 115.842 203.135 115.935C203.042 116.02 202.933 116.066 202.809 116.066ZM202.46 120.717V116.777H203.15V120.717H202.46Z" fill="white"/>
<path d="M204.886 117.441C205.111 116.954 205.522 116.707 206.119 116.707V117.426C205.786 117.41 205.491 117.503 205.25 117.696C205.01 117.889 204.886 118.206 204.886 118.631V120.717H204.195V116.777H204.886V117.441Z" fill="white"/>
<path d="M209.649 116.777H210.386L208.772 120.965C208.602 121.413 208.369 121.753 208.067 121.985C207.764 122.216 207.415 122.325 207.019 122.294V121.652C207.5 121.691 207.857 121.421 208.082 120.849L208.16 120.702L206.43 116.777H207.167L208.485 119.798L209.649 116.777Z" fill="white"/>
<path d="M215.164 115.201C215.917 115.201 216.545 115.464 217.042 115.997C217.538 116.53 217.786 117.179 217.786 117.951C217.786 118.724 217.538 119.373 217.042 119.906C216.545 120.439 215.917 120.71 215.164 120.71H213.008V115.193L215.164 115.201ZM215.172 120.022C215.738 120.022 216.196 119.821 216.553 119.427C216.91 119.033 217.088 118.539 217.088 117.951C217.088 117.364 216.91 116.87 216.553 116.476C216.196 116.082 215.731 115.889 215.172 115.889H213.745V120.014L215.172 120.022Z" fill="white"/>
<path d="M221.881 116.77H222.572V120.711H221.881V120.031C221.54 120.548 221.044 120.811 220.384 120.811C219.833 120.811 219.36 120.61 218.965 120.208C218.577 119.807 218.383 119.32 218.383 118.741C218.383 118.161 218.577 117.674 218.965 117.273C219.352 116.871 219.826 116.67 220.384 116.67C221.036 116.67 221.532 116.925 221.881 117.45V116.77ZM220.477 120.154C220.881 120.154 221.214 120.015 221.478 119.745C221.75 119.475 221.881 119.142 221.881 118.741C221.881 118.339 221.75 118.007 221.478 117.736C221.207 117.466 220.873 117.334 220.47 117.334C220.074 117.334 219.74 117.466 219.477 117.744C219.205 118.014 219.073 118.347 219.073 118.748C219.073 119.15 219.205 119.482 219.477 119.753C219.748 120.023 220.082 120.154 220.477 120.154Z" fill="white"/>
<path d="M225.771 117.433H224.716V119.566C224.716 119.759 224.755 119.898 224.832 119.983C224.91 120.068 225.026 120.106 225.182 120.106C225.337 120.106 225.538 120.106 225.763 120.099V120.709C225.166 120.786 224.724 120.74 224.445 120.562C224.165 120.385 224.026 120.052 224.026 119.566V117.433H223.242V116.769H224.026V115.873L224.716 115.672V116.777H225.771V117.433Z" fill="white"/>
<path d="M226.87 119.055C226.94 119.411 227.103 119.681 227.359 119.874C227.615 120.067 227.933 120.168 228.305 120.168C228.825 120.168 229.205 119.975 229.446 119.588L230.027 119.921C229.639 120.516 229.065 120.809 228.29 120.809C227.661 120.809 227.149 120.616 226.761 120.222C226.366 119.828 226.172 119.333 226.172 118.739C226.172 118.144 226.366 117.649 226.746 117.255C227.134 116.861 227.63 116.668 228.243 116.66C228.825 116.66 229.298 116.861 229.663 117.271C230.027 117.68 230.214 118.167 230.214 118.739C230.214 118.839 230.206 118.939 230.19 119.048L226.87 119.055ZM228.235 117.309C227.863 117.309 227.56 117.41 227.32 117.618C227.079 117.827 226.924 118.105 226.87 118.453H229.515C229.453 118.082 229.306 117.796 229.073 117.603C228.825 117.41 228.553 117.309 228.235 117.309Z" fill="white"/>
<path d="M194.905 136.046C194.331 136.842 193.532 137.244 192.5 137.244C191.468 137.244 190.662 136.85 190.088 136.054C189.514 135.258 189.227 134.2 189.227 132.871C189.227 131.542 189.514 130.484 190.088 129.688C190.662 128.892 191.461 128.498 192.492 128.49C193.524 128.49 194.331 128.884 194.897 129.68C195.471 130.476 195.758 131.534 195.758 132.863C195.766 134.192 195.479 135.251 194.905 136.046ZM190.91 135.289C191.282 135.861 191.81 136.147 192.492 136.147C193.175 136.147 193.71 135.861 194.083 135.289C194.455 134.718 194.641 133.914 194.641 132.871C194.641 131.828 194.455 131.017 194.075 130.445C193.703 129.873 193.167 129.587 192.485 129.587C191.802 129.587 191.275 129.873 190.902 130.445C190.53 131.017 190.344 131.828 190.344 132.879C190.351 133.914 190.538 134.718 190.91 135.289Z" fill="white"/>
<path d="M196.586 137.082V136.162L199.573 133.126C200.372 132.33 200.767 131.65 200.767 131.079C200.767 130.607 200.62 130.236 200.333 129.974C200.046 129.711 199.689 129.58 199.27 129.58C198.471 129.58 197.889 129.958 197.532 130.715L196.586 130.159C196.85 129.611 197.222 129.201 197.695 128.915C198.168 128.637 198.688 128.49 199.262 128.49C199.968 128.49 200.589 128.722 201.116 129.186C201.644 129.649 201.9 130.275 201.908 131.063C201.908 131.913 201.403 132.848 200.395 133.852L198.238 136H202.07V137.082H196.586Z" fill="white"/>
<path d="M203.613 138.271L202.984 138.287L207.817 127.455L208.446 127.44L203.613 138.271Z" fill="white"/>
<path d="M212.733 132.1C213.377 132.224 213.912 132.494 214.324 132.934C214.735 133.367 214.944 133.916 214.944 134.588C214.944 135.407 214.665 136.056 214.099 136.527C213.532 136.998 212.85 137.238 212.043 137.238C211.399 137.238 210.825 137.091 210.328 136.797C209.832 136.504 209.475 136.079 209.266 135.53L210.212 134.974C210.46 135.754 211.073 136.141 212.051 136.141C212.578 136.141 213.005 136.002 213.331 135.731C213.656 135.461 213.827 135.075 213.827 134.588C213.827 134.101 213.664 133.715 213.331 133.437C212.997 133.159 212.57 133.019 212.051 133.019H211.764L211.314 132.332L213.276 129.69H209.514V128.639H214.595L214.587 129.62L212.733 132.1Z" fill="white"/>
<path d="M221.608 136.031C221.034 136.827 220.235 137.228 219.203 137.228C218.172 137.228 217.365 136.834 216.799 136.038C216.225 135.243 215.938 134.184 215.938 132.855C215.938 131.526 216.225 130.468 216.791 129.672C217.357 128.876 218.164 128.482 219.196 128.475C220.227 128.475 221.034 128.869 221.608 129.665C222.182 130.46 222.469 131.519 222.469 132.848C222.469 134.177 222.182 135.235 221.608 136.031ZM217.621 135.274C217.993 135.845 218.521 136.131 219.203 136.131C219.886 136.131 220.421 135.845 220.794 135.274C221.166 134.702 221.352 133.898 221.352 132.848C221.352 131.797 221.166 130.993 220.786 130.422C220.414 129.85 219.878 129.556 219.196 129.564C218.513 129.564 217.978 129.85 217.613 130.422C217.241 130.993 217.055 131.805 217.055 132.855C217.062 133.898 217.249 134.702 217.621 135.274Z" fill="white"/>
<path d="M218.358 44.1142C223.949 44.1142 228.481 39.6002 228.481 34.0318C228.481 28.4635 223.949 23.9494 218.358 23.9494C212.767 23.9494 208.234 28.4635 208.234 34.0318C208.234 39.6002 212.767 44.1142 218.358 44.1142Z" fill="white"/>
<path d="M231.858 44.1045C226.272 44.1045 221.734 39.5848 221.727 34.0298C221.719 28.4748 226.265 23.9474 231.842 23.9397C237.428 23.9397 241.966 28.4594 241.974 34.0144C241.981 39.5694 237.443 44.0968 231.858 44.1045ZM231.85 27.3005C228.126 27.3005 225.101 30.3214 225.101 34.0221C225.101 37.7229 228.134 40.7437 231.85 40.7437C235.574 40.7437 238.599 37.7229 238.599 34.0221C238.599 30.3059 235.574 27.2928 231.85 27.3005Z" fill="white"/>
<defs>
<linearGradient id="paint0_linear_1_10441" x1="28.4961" y1="183.208" x2="230.679" y2="-20.0213" gradientUnits="userSpaceOnUse">
<stop stop-color="#00252E"/>
<stop offset="1" stop-color="#83F8A6"/>
</linearGradient>
<linearGradient id="paint1_linear_1_10441" x1="11.4892" y1="125.069" x2="180.204" y2="124.976" gradientUnits="userSpaceOnUse">
<stop stop-color="#02CAFD"/>
<stop offset="1" stop-color="#83F8A6"/>
</linearGradient>
<linearGradient id="paint2_linear_1_10441" x1="-30.3696" y1="100.11" x2="51.5847" y2="17.7316" gradientUnits="userSpaceOnUse">
<stop stop-color="#02CAFD"/>
<stop offset="1" stop-color="#83F8A6"/>
</linearGradient>
<linearGradient id="paint3_linear_1_10441" x1="84.6232" y1="16.735" x2="117.891" y2="-16.7047" gradientUnits="userSpaceOnUse">
<stop stop-color="#02CAFD"/>
<stop offset="1" stop-color="#83F8A6"/>
</linearGradient>
<linearGradient id="paint4_linear_1_10441" x1="404.769" y1="157.118" x2="115.346" y2="-14.669" gradientUnits="userSpaceOnUse">
<stop stop-color="#02CAFD"/>
<stop offset="1" stop-color="#83F8A6"/>
</linearGradient>
</defs>
</svg>
